<svg width="200" height="200" viewBox="0 0 200 200" fill="none" xmlns="http://www.w3.org/2000/svg">
<path d="M12.2073 89.776H21.8553V94.816H21.9993C23.3433 92.896 24.9513 91.408 26.8233 90.352C28.7433 89.296 30.9273 88.768 33.3753 88.768C35.7273 88.768 37.8633 89.224 39.7833 90.136C41.7513 91.048 43.2393 92.656 44.2473 94.96C45.3513 93.328 46.8393 91.888 48.7112 90.64C50.6313 89.392 52.8873 88.768 55.4793 88.768C57.4473 88.768 59.2713 89.008 60.9513 89.488C62.6313 89.968 64.0713 90.736 65.2713 91.792C66.4713 92.848 67.4073 94.24 68.0793 95.968C68.7513 97.648 69.0873 99.688 69.0873 102.088V127H58.8633V105.904C58.8633 104.656 58.8153 103.48 58.7193 102.376C58.6233 101.272 58.3593 100.312 57.9273 99.496C57.4953 98.68 56.8473 98.032 55.9833 97.552C55.1673 97.072 54.0393 96.832 52.5993 96.832C51.1593 96.832 49.9833 97.12 49.0713 97.696C48.2073 98.224 47.5113 98.944 46.9833 99.856C46.5033 100.72 46.1673 101.728 45.9753 102.88C45.8313 103.984 45.7593 105.112 45.7593 106.264V127H35.5353V106.12C35.5353 105.016 35.5113 103.936 35.4633 102.88C35.4153 101.776 35.1993 100.768 34.8153 99.856C34.4793 98.944 33.8793 98.224 33.0153 97.696C32.1993 97.12 30.9753 96.832 29.3433 96.832C28.8633 96.832 28.2153 96.952 27.3993 97.192C26.6313 97.384 25.8633 97.792 25.0953 98.416C24.3753 98.992 23.7513 99.856 23.2233 101.008C22.6953 102.112 22.4313 103.576 22.4313 105.4V127H12.2073V89.776ZM95.7453 89.416H95.5293L82.4973 106.912H95.7453V89.416ZM95.7453 115.336H74.4333V105.976L96.3213 76.6H105.465V106.912H112.161V115.336H105.465V127H95.7453V115.336ZM135.537 131.608C134.433 134.632 132.897 136.792 130.929 138.088C128.961 139.384 126.225 140.032 122.721 140.032C121.665 140.032 120.609 139.984 119.553 139.888C118.545 139.84 117.513 139.768 116.457 139.672V131.248C117.417 131.344 118.401 131.44 119.409 131.536C120.417 131.632 121.425 131.656 122.433 131.608C123.777 131.464 124.761 130.936 125.385 130.024C126.057 129.112 126.393 128.104 126.393 127C126.393 126.184 126.249 125.416 125.961 124.696L112.929 89.776H123.801L132.225 115.264H132.369L140.505 89.776H151.089L135.537 131.608ZM179.569 104.392C179.089 101.8 178.225 99.832 176.977 98.488C175.777 97.144 173.929 96.472 171.433 96.472C169.801 96.472 168.433 96.76 167.329 97.336C166.273 97.864 165.409 98.536 164.737 99.352C164.113 100.168 163.657 101.032 163.369 101.944C163.129 102.856 162.985 103.672 162.937 104.392H179.569ZM162.937 110.872C163.081 114.184 163.921 116.584 165.457 118.072C166.993 119.56 169.201 120.304 172.081 120.304C174.145 120.304 175.921 119.8 177.409 118.792C178.897 117.736 179.809 116.632 180.145 115.48H189.145C187.705 119.944 185.497 123.136 182.521 125.056C179.545 126.976 175.945 127.936 171.721 127.936C168.793 127.936 166.153 127.48 163.801 126.568C161.449 125.608 159.457 124.264 157.825 122.536C156.193 120.808 154.921 118.744 154.009 116.344C153.145 113.944 152.713 111.304 152.713 108.424C152.713 105.64 153.169 103.048 154.081 100.648C154.993 98.248 156.289 96.184 157.969 94.456C159.649 92.68 161.641 91.288 163.945 90.28C166.297 89.272 168.889 88.768 171.721 88.768C174.889 88.768 177.649 89.392 180.001 90.64C182.353 91.84 184.273 93.472 185.761 95.536C187.297 97.6 188.401 99.952 189.073 102.592C189.745 105.232 189.985 107.992 189.793 110.872H162.937Z" fill="#4C4C4C"/>
</svg>
